<svg id="Grupo_162783" data-name="Grupo 162783" xmlns="http://www.w3.org/2000/svg" width="246.409" height="180.7" viewBox="0 0 246.409 180.7">
  <circle id="Elipse_6459" data-name="Elipse 6459" cx="4.261" cy="4.261" r="4.261" transform="translate(25.553 135.719)" fill="#1081e0"/>
  <path id="Trazado_270368" data-name="Trazado 270368" d="M4,12.5V143.918H36.855v16.427h98.564V143.918h94.457V12.5ZM217.555,135.7a4.107,4.107,0,1,1,4.107-4.107A4.108,4.108,0,0,1,217.555,135.7Zm0-106.777a4.107,4.107,0,1,1,4.107-4.107A4.108,4.108,0,0,1,217.555,28.927Z" transform="translate(13.765 8.034)" fill="#20cb7d"/>
  <path id="Trazado_270369" data-name="Trazado 270369" d="M16.427,7.5H4.107a4.107,4.107,0,1,0,0,8.214H12.32v168.38a4.107,4.107,0,1,0,8.214,0V11.607A4.1,4.1,0,0,0,16.427,7.5Z" transform="translate(1.338 -7.5)" fill="#cbd4d8"/>
  <rect id="Rectángulo_298386" data-name="Rectángulo 298386" width="12.173" height="15.825" transform="translate(1.207 33.465)" fill="#fff"/>
  <rect id="Rectángulo_298387" data-name="Rectángulo 298387" width="15.825" height="15.825" transform="translate(21.901 33.465)" fill="#38454f"/>
  <rect id="Rectángulo_298388" data-name="Rectángulo 298388" width="12.173" height="17.042" transform="translate(1.207 61.463)" fill="#fda929"/>
  <rect id="Rectángulo_298389" data-name="Rectángulo 298389" width="15.825" height="17.042" transform="translate(21.901 61.463)" fill="#38454f"/>
  <rect id="Rectángulo_298390" data-name="Rectángulo 298390" width="12.173" height="15.825" transform="translate(1.207 90.678)" fill="#7453d8"/>
  <rect id="Rectángulo_298391" data-name="Rectángulo 298391" width="15.825" height="15.825" transform="translate(21.901 90.678)" fill="#38454f"/>
  <g id="Grupo_162779" data-name="Grupo 162779" transform="translate(59.637 160.065)">
    <rect id="Rectángulo_298392" data-name="Rectángulo 298392" width="7.304" height="8.521" transform="translate(0 0)" fill="#f3cc6d"/>
    <rect id="Rectángulo_298393" data-name="Rectángulo 298393" width="8.521" height="8.521" transform="translate(10.956 0)" fill="#f3cc6d"/>
    <rect id="Rectángulo_298394" data-name="Rectángulo 298394" width="7.304" height="8.521" transform="translate(24.346 0)" fill="#f3cc6d"/>
    <rect id="Rectángulo_298395" data-name="Rectángulo 298395" width="7.304" height="8.521" transform="translate(36.519 0)" fill="#f3cc6d"/>
    <rect id="Rectángulo_298396" data-name="Rectángulo 298396" width="8.521" height="8.521" transform="translate(48.693 0)" fill="#f3cc6d"/>
    <rect id="Rectángulo_298397" data-name="Rectángulo 298397" width="8.521" height="8.521" transform="translate(60.866 0)" fill="#f3cc6d"/>
    <rect id="Rectángulo_298398" data-name="Rectángulo 298398" width="8.521" height="8.521" transform="translate(73.039 0)" fill="#f3cc6d"/>
  </g>
  <g id="Grupo_162780" data-name="Grupo 162780" transform="translate(174.065 33.465)">
    <rect id="Rectángulo_298399" data-name="Rectángulo 298399" width="8.521" height="86.429" transform="translate(36.519 0)" fill="#153a17"/>
    <rect id="Rectángulo_298400" data-name="Rectángulo 298400" width="8.521" height="86.429" transform="translate(24.346 0)" fill="#153a17"/>
    <rect id="Rectángulo_298401" data-name="Rectángulo 298401" width="8.521" height="86.429" transform="translate(12.173 0)" fill="#153a17"/>
    <rect id="Rectángulo_298402" data-name="Rectángulo 298402" width="8.521" height="86.429" transform="translate(0 0)" fill="#153a17"/>
  </g>
  <rect id="Rectángulo_298403" data-name="Rectángulo 298403" width="8.521" height="12.173" transform="translate(120.503 33.465)" fill="#f3cc6d"/>
  <rect id="Rectángulo_298404" data-name="Rectángulo 298404" width="8.521" height="12.173" transform="translate(132.676 33.465)" fill="#f3cc6d"/>
  <rect id="Rectángulo_298405" data-name="Rectángulo 298405" width="8.521" height="12.173" transform="translate(144.85 33.465)" fill="#f3cc6d"/>
  <rect id="Rectángulo_298406" data-name="Rectángulo 298406" width="8.521" height="12.173" transform="translate(120.503 69.984)" fill="#f3cc6d"/>
  <rect id="Rectángulo_298407" data-name="Rectángulo 298407" width="8.521" height="12.173" transform="translate(132.676 69.984)" fill="#f3cc6d"/>
  <rect id="Rectángulo_298408" data-name="Rectángulo 298408" width="8.521" height="12.173" transform="translate(144.85 69.984)" fill="#f3cc6d"/>
  <rect id="Rectángulo_298409" data-name="Rectángulo 298409" width="7.304" height="12.173" transform="translate(59.638 33.465)" fill="#f3cc6d"/>
  <rect id="Rectángulo_298410" data-name="Rectángulo 298410" width="8.521" height="12.173" transform="translate(70.593 33.465)" fill="#f3cc6d"/>
  <rect id="Rectángulo_298411" data-name="Rectángulo 298411" width="7.304" height="12.173" transform="translate(83.984 33.465)" fill="#f3cc6d"/>
  <rect id="Rectángulo_298412" data-name="Rectángulo 298412" width="7.304" height="12.173" transform="translate(59.638 69.984)" fill="#f3cc6d"/>
  <rect id="Rectángulo_298413" data-name="Rectángulo 298413" width="8.521" height="12.173" transform="translate(70.593 69.984)" fill="#f3cc6d"/>
  <rect id="Rectángulo_298414" data-name="Rectángulo 298414" width="7.304" height="12.173" transform="translate(83.984 69.984)" fill="#f3cc6d"/>
  <ellipse id="Elipse_6460" data-name="Elipse 6460" cx="3.652" cy="4.261" rx="3.652" ry="4.261" transform="translate(83.984 85.809)" fill="#f3cc6d"/>
  <ellipse id="Elipse_6461" data-name="Elipse 6461" cx="4.261" cy="3.652" rx="4.261" ry="3.652" transform="translate(25.553 123.546)" fill="#f3cc6d"/>
  <circle id="Elipse_6462" data-name="Elipse 6462" cx="4.261" cy="4.261" r="4.261" transform="translate(70.593 85.809)" fill="#f3cc6d"/>
  <ellipse id="Elipse_6463" data-name="Elipse 6463" cx="3.652" cy="4.261" rx="3.652" ry="4.261" transform="translate(59.638 85.809)" fill="#f3cc6d"/>
  <path id="Trazado_270370" data-name="Trazado 270370" d="M32.32,41.714H24.107a4.107,4.107,0,1,1,0-8.214H32.32a4.107,4.107,0,0,1,0,8.214Z" transform="translate(63.475 73.277)" fill="#f3cc6d"/>
  <path id="Trazado_270371" data-name="Trazado 270371" d="M32.32,44.714H24.107a4.107,4.107,0,0,1,0-8.214H32.32a4.107,4.107,0,0,1,0,8.214Z" transform="translate(63.475 82.598)" fill="#f3cc6d"/>
  <path id="Trazado_270372" data-name="Trazado 270372" d="M24.32,41.714H16.107a4.107,4.107,0,1,1,0-8.214H24.32a4.107,4.107,0,1,1,0,8.214Z" transform="translate(38.62 73.277)" fill="#f3cc6d"/>
  <path id="Trazado_270373" data-name="Trazado 270373" d="M24.32,44.714H16.107a4.107,4.107,0,0,1,0-8.214H24.32a4.107,4.107,0,0,1,0,8.214Z" transform="translate(38.62 82.598)" fill="#f3cc6d"/>
  <circle id="Elipse_6464" data-name="Elipse 6464" cx="4.261" cy="4.261" r="4.261" transform="translate(144.85 85.809)" fill="#f3cc6d"/>
  <circle id="Elipse_6465" data-name="Elipse 6465" cx="4.261" cy="4.261" r="4.261" transform="translate(132.676 85.809)" fill="#f3cc6d"/>
  <circle id="Elipse_6466" data-name="Elipse 6466" cx="4.261" cy="4.261" r="4.261" transform="translate(174.065 127.198)" fill="#f3cc6d"/>
  <circle id="Elipse_6467" data-name="Elipse 6467" cx="4.261" cy="4.261" r="4.261" transform="translate(186.238 127.198)" fill="#f3cc6d"/>
  <circle id="Elipse_6468" data-name="Elipse 6468" cx="4.261" cy="4.261" r="4.261" transform="translate(198.411 127.198)" fill="#f3cc6d"/>
  <circle id="Elipse_6469" data-name="Elipse 6469" cx="4.261" cy="4.261" r="4.261" transform="translate(210.585 127.198)" fill="#f3cc6d"/>
  <circle id="Elipse_6470" data-name="Elipse 6470" cx="4.261" cy="4.261" r="4.261" transform="translate(120.503 85.809)" fill="#f3cc6d"/>
  <path id="Trazado_270374" data-name="Trazado 270374" d="M47.32,41.714H39.107a4.107,4.107,0,0,1,0-8.214H47.32a4.107,4.107,0,0,1,0,8.214Z" transform="translate(110.077 73.277)" fill="#f3cc6d"/>
  <path id="Trazado_270375" data-name="Trazado 270375" d="M47.32,44.714H39.107a4.107,4.107,0,0,1,0-8.214H47.32a4.107,4.107,0,0,1,0,8.214Z" transform="translate(110.077 82.598)" fill="#f3cc6d"/>
  <path id="Trazado_270376" data-name="Trazado 270376" d="M39.32,41.714H31.107a4.107,4.107,0,1,1,0-8.214H39.32a4.107,4.107,0,1,1,0,8.214Z" transform="translate(85.222 73.277)" fill="#f3cc6d"/>
  <path id="Trazado_270377" data-name="Trazado 270377" d="M39.32,44.714H31.107a4.107,4.107,0,0,1,0-8.214H39.32a4.107,4.107,0,0,1,0,8.214Z" transform="translate(85.222 82.598)" fill="#f3cc6d"/>
  <rect id="Rectángulo_298415" data-name="Rectángulo 298415" width="40.171" height="24.346" transform="translate(116.851 45.638)" fill="#38454f"/>
  <rect id="Rectángulo_298416" data-name="Rectángulo 298416" width="41.389" height="24.346" transform="translate(54.768 45.638)" fill="#38454f"/>
  <rect id="Rectángulo_298417" data-name="Rectángulo 298417" width="24.346" height="27.998" transform="translate(63.29 102.852)" fill="#38454f"/>
  <rect id="Rectángulo_298418" data-name="Rectángulo 298418" width="24.346" height="27.998" transform="translate(124.155 102.852)" fill="#38454f"/>
  <g id="Grupo_162782" data-name="Grupo 162782" transform="translate(0 0)">
    <g id="Grupo_162781" data-name="Grupo 162781">
      <path id="Trazado_270378" data-name="Trazado 270378" d="M245.409,23.927H19.534V11.607A4.1,4.1,0,0,0,15.427,7.5H3.107a4.107,4.107,0,1,0,0,8.214H11.32V36.248H-1V60.889H11.32V65H-1V89.636H11.32v4.107H-1v24.641H11.32v65.709a4.107,4.107,0,1,0,8.214,0V163.559H44.175v16.427H150.952V163.559h94.457ZM19.534,44.461h8.214v8.214H19.534ZM7.214,52.675V44.461H11.32v8.214Zm12.32,20.534h8.214v8.214H19.534ZM7.214,81.423V73.209H11.32v8.214Zm12.32,20.534h8.214v8.214H19.534Zm-12.32,8.214v-8.214H11.32v8.214Zm135.525,61.6h-4.107v-4.107h-8.214v4.107h-4.107v-4.107H118.1v4.107h-4.107v-4.107h-8.214v4.107h-4.107v-4.107H93.457v4.107H89.35v-4.107H81.136v4.107H77.03v-4.107H68.816v4.107H64.709v-4.107H56.5v4.107H52.389v-8.214h90.35ZM237.2,155.346H19.534V118.384H35.961V93.743H19.534V89.636H35.961V65H19.534V60.889H35.961V36.248H19.534V32.141H237.2Z" transform="translate(1 -7.5)"/>
      <path id="Trazado_270379" data-name="Trazado 270379" d="M34.214,64.782h8.214V56.568h4.107v8.214h8.214V56.568h4.107v8.214h8.214V56.568h8.214V23.714H67.068V15.5H58.855v8.214H54.748V15.5H46.534v8.214H42.427V15.5H34.214v8.214H26V56.568h8.214Zm0-32.855H67.068V48.355H34.214Z" transform="translate(84.884 17.355)"/>
      <path id="Trazado_270380" data-name="Trazado 270380" d="M19.214,64.782h8.214V56.568h4.107v8.214h8.214V56.568h4.107v8.214h8.214V56.568h8.214V23.714H52.068V15.5H43.855v8.214H39.748V15.5H31.534v8.214H27.427V15.5H19.214v8.214H11V56.568h8.214Zm0-32.855H52.068V48.355H19.214Z" transform="translate(38.282 17.355)"/>
      <circle id="Elipse_6474" data-name="Elipse 6474" cx="4.261" cy="4.261" r="4.261" transform="translate(81.549 85.809)"/>
      <circle id="Elipse_6476" data-name="Elipse 6476" cx="4.261" cy="4.261" r="4.261" transform="translate(69.376 85.809)"/>
      <circle id="Elipse_6477" data-name="Elipse 6477" cx="4.261" cy="4.261" r="4.261" transform="translate(57.203 85.809)"/>
      <path id="Trazado_270381" data-name="Trazado 270381" d="M15.107,52.034a4.107,4.107,0,0,0,0,8.214h4.107v8.214H52.068V60.248h4.107a4.107,4.107,0,1,0,0-8.214H52.068V47.927h4.107a4.107,4.107,0,1,0,0-8.214H52.068V31.5H19.214v8.214H15.107a4.107,4.107,0,1,0,0,8.214h4.107v4.107Zm12.32-12.32H43.855V60.248H27.427Z" transform="translate(38.282 67.064)"/>
      <circle id="Elipse_6478" data-name="Elipse 6478" cx="4.261" cy="4.261" r="4.261" transform="translate(143.632 85.809)"/>
      <circle id="Elipse_6479" data-name="Elipse 6479" cx="4.261" cy="4.261" r="4.261" transform="translate(131.459 85.809)"/>
      <circle id="Elipse_6484" data-name="Elipse 6484" cx="4.261" cy="4.261" r="4.261" transform="translate(119.286 85.809)"/>
      <path id="Trazado_270382" data-name="Trazado 270382" d="M30.107,52.034a4.107,4.107,0,0,0,0,8.214h4.107v8.214H67.068V60.248h4.107a4.107,4.107,0,1,0,0-8.214H67.068V47.927h4.107a4.107,4.107,0,1,0,0-8.214H67.068V31.5H34.214v8.214H30.107a4.107,4.107,0,1,0,0,8.214h4.107v4.107Zm12.32-12.32H58.855V60.248H42.427Z" transform="translate(84.884 67.064)"/>
    </g>
  </g>
</svg>
