<svg id="Page-1" xmlns="http://www.w3.org/2000/svg" width="181.984" height="181.951" viewBox="0 0 181.984 181.951">
  <g id="_061---Motherboard-Repair" data-name="061---Motherboard-Repair">
    <path id="Path" d="M327.46,278.93a48.53,48.53,0,0,1-93.511,18.2,47.81,47.81,0,0,1-3.549-18.2,48.53,48.53,0,0,1,97.06,0Z" transform="translate(-148.505 -148.506)" fill="#fda929" fill-rule="evenodd"/>
    <path id="Path-2" data-name="Path" d="M336.553,353.039,332.741,318.6a2.893,2.893,0,0,1,1.583-2.857,24.25,24.25,0,0,0,.807-42.385,2.078,2.078,0,0,0-3.1,1.82v12.066a3,3,0,0,1-1.334,2.493l-6.1,4.065a2.921,2.921,0,0,1-3.337,0l-6.066-4.034a3.059,3.059,0,0,1-1.365-2.545V275.176a2.078,2.078,0,0,0-3.088-1.82,24.223,24.223,0,0,0,.725,42.318,3.032,3.032,0,0,1,1.647,2.978l-3.8,34.387Z" transform="translate(-192.51 -176.023)" fill="#9e9e9e" fill-rule="evenodd"/>
    <path id="Path-3" data-name="Path" d="M379.581,315.744a24.25,24.25,0,0,0,.807-42.385,2.078,2.078,0,0,0-3.1,1.82v3.191a24.165,24.165,0,0,1-6.809,37.377A2.893,2.893,0,0,0,368.9,318.6l3.812,34.435h9.1L378,318.6a2.893,2.893,0,0,1,1.583-2.857Z" transform="translate(-237.768 -176.023)" fill="#707070" fill-rule="evenodd"/>
    <path id="Path-4" data-name="Path" d="M159.057,11.566V88.911a48.615,48.615,0,0,0-60.663,47.013,47.81,47.81,0,0,0,3.549,18.2H28.633A3.033,3.033,0,0,1,25.6,151.09V84.361h9.1a3.033,3.033,0,0,0,3.033-3.033V69.2A3.033,3.033,0,0,0,34.7,66.163H25.6V35.831h9.1A3.033,3.033,0,0,0,37.732,32.8V23.7A3.033,3.033,0,0,0,34.7,20.666H25.6v-9.1a3.033,3.033,0,0,1,3.033-3.033H156.024A3.033,3.033,0,0,1,159.057,11.566Z" transform="translate(-16.501 -5.5)" fill="#20cb7d" fill-rule="evenodd"/>
    <path id="Path-5" data-name="Path" d="M257.879,230.631c-1.516-.136-3.015-.231-4.55-.231a48.53,48.53,0,0,0-48.53,48.53,47.81,47.81,0,0,0,3.549,18.2h9.1a47.81,47.81,0,0,1-3.549-18.2A48.505,48.505,0,0,1,257.879,230.631Z" transform="translate(-132.005 -148.506)" fill="#549414" fill-rule="evenodd"/>
    <path id="Path-6" data-name="Path" d="M376.032,8.533h-9.1a3.033,3.033,0,0,1,3.033,3.033V87.488a47.915,47.915,0,0,1,9.1,1.422V11.566A3.033,3.033,0,0,0,376.032,8.533Z" transform="translate(-236.509 -5.5)" fill="#549414" fill-rule="evenodd"/>
    <rect id="Rectangle" width="18.199" height="15.166" rx="7.583" transform="translate(3.033 15.166)" fill="#9e9e9e"/>
    <path id="Path-7" data-name="Path" d="M34.7,42.667H25.6A3.033,3.033,0,0,1,28.633,45.7v9.1A3.033,3.033,0,0,1,25.6,57.832h9.1A3.033,3.033,0,0,0,37.732,54.8V45.7A3.033,3.033,0,0,0,34.7,42.667Z" transform="translate(-16.501 -27.501)" fill="#707070" fill-rule="evenodd"/>
    <rect id="Rectangle-2" data-name="Rectangle" width="18.199" height="18.199" rx="8.533" transform="translate(3.033 60.662)" fill="#9e9e9e"/>
    <path id="Path-8" data-name="Path" d="M34.7,170.667H25.6a3.033,3.033,0,0,1,3.033,3.033v12.132a3.033,3.033,0,0,1-3.033,3.033h9.1a3.033,3.033,0,0,0,3.033-3.033V173.7A3.033,3.033,0,0,0,34.7,170.667Z" transform="translate(-16.501 -110.004)" fill="#707070" fill-rule="evenodd"/>
    <rect id="Rectangle-3" data-name="Rectangle" width="42.464" height="42.464" rx="8.533" transform="translate(33.364 15.166)" fill="#9e9e9e"/>
    <path id="Path-9" data-name="Path" d="M188.3,42.667h-9.1a3.033,3.033,0,0,1,3.033,3.033V82.1A3.033,3.033,0,0,1,179.2,85.13h9.1a3.033,3.033,0,0,0,3.033-3.033V45.7A3.033,3.033,0,0,0,188.3,42.667Z" transform="translate(-115.505 -27.501)" fill="#606060" fill-rule="evenodd"/>
    <rect id="Rectangle-4" data-name="Rectangle" width="12.132" height="54.596" rx="6.066" transform="translate(94.027 15.166)" fill="#fda929"/>
    <rect id="Rectangle-5" data-name="Rectangle" width="12.132" height="54.596" rx="6.066" transform="translate(118.292 15.166)" fill="#fda929"/>
    <path id="Path-10" data-name="Path" d="M140.445,293.732H88.366a3.033,3.033,0,0,1-3.033-3.033v-6.066a3.033,3.033,0,0,1,3.033-3.033h59.176" transform="translate(-55.002 -181.507)" fill="#fda929" fill-rule="evenodd"/>
    <path id="Path-11" data-name="Path" d="M137.29,362H88.366a3.033,3.033,0,0,1-3.033-3.033V352.9a3.033,3.033,0,0,1,3.033-3.033H137.29" transform="translate(-55.002 -225.509)" fill="#fda929" fill-rule="evenodd"/>
    <circle id="Oval" cx="9.099" cy="9.099" r="9.099" transform="translate(33.364 69.762)" fill="#9e9e9e"/>
    <circle id="Oval-2" data-name="Oval" cx="9.099" cy="9.099" r="9.099" transform="translate(63.696 69.762)" fill="#9e9e9e"/>
    <g id="Grupo_162778" data-name="Grupo 162778">
      <path id="Shape" d="M145.59,81.145V6.066A6.066,6.066,0,0,0,139.523,0H12.132A6.066,6.066,0,0,0,6.066,6.066v6.066A6.066,6.066,0,0,0,0,18.2v9.1a6.066,6.066,0,0,0,6.066,6.066V57.629A6.066,6.066,0,0,0,0,63.7V75.828a6.066,6.066,0,0,0,6.066,6.066v63.7a6.066,6.066,0,0,0,6.066,6.066H83.49a51.539,51.539,0,1,0,62.1-70.511ZM6.066,18.2H18.2v9.1H6.066Zm0,45.5H18.2V75.828H6.066Zm6.066,81.894V97.06h9.1a3.033,3.033,0,1,0,0-6.066h-9.1v-9.1H18.2a6.066,6.066,0,0,0,6.066-6.066V63.7A6.066,6.066,0,0,0,18.2,57.629H12.132v-9.1h9.1a3.033,3.033,0,1,0,0-6.066h-9.1v-9.1H18.2A6.066,6.066,0,0,0,24.265,27.3V18.2A6.066,6.066,0,0,0,18.2,12.132H12.132V6.066H139.523V79.714A51,51,0,0,0,91.182,97.06H33.364a6.066,6.066,0,0,0-6.066,6.066v6.066a6.066,6.066,0,0,0,6.066,6.066H81.145a50.993,50.993,0,0,0-1.431,6.066H33.364a6.066,6.066,0,0,0-6.066,6.066v6.066a6.066,6.066,0,0,0,6.066,6.066H79.714a50.981,50.981,0,0,0,1.431,6.066Zm66.883-12.132H33.364v-6.066H79.016c-.061,1.01-.155,2.008-.155,3.033S78.955,132.447,79.016,133.457Zm4.474-24.265H33.364v-6.066H86.747a51.363,51.363,0,0,0-3.257,6.066Zm36.622,65.515,3.512-31.739a6.067,6.067,0,0,0-3.209-5.994A21.086,21.086,0,0,1,109.4,121.1a21.3,21.3,0,0,1,8.9-20.207V111.2a6.066,6.066,0,0,0,2.73,5.074l6.009,3.992a5.936,5.936,0,0,0,6.754.039l6.1-4.064a6.021,6.021,0,0,0,2.672-5.026V100.891a21.214,21.214,0,0,1-2.172,36.155,5.908,5.908,0,0,0-3.169,5.866l3.521,31.8a44.088,44.088,0,0,1-20.625,0Zm26.522-1.82-3.4-30.486a27.28,27.28,0,0,0,.91-47.677,5,5,0,0,0-5.074,0,5.139,5.139,0,0,0-2.581,4.428l.015,12.035-6.082,4.071-6.066-4.064V99.153a5.156,5.156,0,0,0-2.581-4.447,5.01,5.01,0,0,0-5.065,0,27.344,27.344,0,0,0-13.346,27.146A27,27,0,0,0,117.6,142.29l-3.391,30.6a45.5,45.5,0,1,1,32.427,0Z"/>
      <path id="Path-12" data-name="Path" d="M361.433,426.667A3.033,3.033,0,0,0,358.4,429.7v12.132a3.033,3.033,0,1,0,6.066,0V429.7A3.033,3.033,0,0,0,361.433,426.667Z" transform="translate(-231.009 -275.011)" fill-rule="evenodd"/>
      <path id="Shape-2" data-name="Shape" d="M91.4,82.663h36.4a6.045,6.045,0,0,0,5.223-3.033H136.9a3.033,3.033,0,1,0,0-6.066h-3.033V67.5H136.9a3.033,3.033,0,0,0,0-6.066h-3.033V55.365H136.9a3.033,3.033,0,0,0,0-6.066h-3.033V43.232H136.9a3.033,3.033,0,1,0,0-6.066H133.02a6.045,6.045,0,0,0-5.223-3.033H91.4A6.066,6.066,0,0,0,85.333,40.2V76.6A6.066,6.066,0,0,0,91.4,82.663Zm0-42.464h36.4V76.6H91.4Z" transform="translate(-55.002 -22.001)"/>
      <circle id="Oval-3" data-name="Oval" cx="3.033" cy="3.033" r="3.033" transform="translate(42.464 24.265)"/>
      <circle id="Oval-4" data-name="Oval" cx="3.033" cy="3.033" r="3.033" transform="translate(60.662 42.464)"/>
      <path id="Shape-3" data-name="Shape" d="M262.066,94.8h6.066a6.066,6.066,0,0,0,6.066-6.066V40.2a6.066,6.066,0,0,0-6.066-6.066h-6.066A6.066,6.066,0,0,0,256,40.2v48.53A6.066,6.066,0,0,0,262.066,94.8Zm0-54.6h6.066v48.53h-6.066Z" transform="translate(-165.006 -22.001)"/>
      <path id="Shape-4" data-name="Shape" d="M330.333,94.8H336.4a6.066,6.066,0,0,0,6.066-6.066V40.2a6.066,6.066,0,0,0-6.066-6.066h-6.066a6.066,6.066,0,0,0-6.066,6.066v48.53A6.066,6.066,0,0,0,330.333,94.8Zm0-54.6H336.4v48.53h-6.066Z" transform="translate(-209.008 -22.001)"/>
      <path id="Shape-5" data-name="Shape" d="M97.466,212a12.133,12.133,0,1,0-12.133-12.132A12.132,12.132,0,0,0,97.466,212Zm0-18.2a6.066,6.066,0,1,1-6.066,6.066A6.066,6.066,0,0,1,97.466,193.8Z" transform="translate(-55.002 -121.004)"/>
      <path id="Shape-6" data-name="Shape" d="M182.8,187.733a12.133,12.133,0,1,0,12.132,12.133A12.132,12.132,0,0,0,182.8,187.733Zm0,18.2a6.066,6.066,0,1,1,6.066-6.066A6.066,6.066,0,0,1,182.8,205.932Z" transform="translate(-110.004 -121.004)"/>
    </g>
  </g>
</svg>
